<mxfile host="app.diagrams.net" modified="2023-08-31T11:41:55.029Z" agent="Mozilla/5.0 (Windows NT 10.0; Win64; x64) AppleWebKit/537.36 (KHTML, like Gecko) Chrome/116.0.0.0 Safari/537.36 Edg/116.0.1938.62" etag="_WFdaKpZrjNppTz7Mbxe" version="21.6.9" type="device">
  <diagram name="Pagina-1" id="CP48uRWRf2iVzJhP-7ib">
    <mxGraphModel dx="1155" dy="641" grid="1" gridSize="10" guides="1" tooltips="1" connect="1" arrows="1" fold="1" page="1" pageScale="1" pageWidth="827" pageHeight="1169" math="0" shadow="0">
      <root>
        <mxCell id="0" />
        <mxCell id="1" parent="0" />
        <mxCell id="P8fs_v2lmVW-Hmvv1wTS-100" value="" style="rounded=1;whiteSpace=wrap;html=1;shadow=0;arcSize=4;fillColor=#e1d5e7;strokeColor=#9673a6;glass=0;fillStyle=hatch;fontFamily=Poppins;fontSource=https%3A%2F%2Ffonts.googleapis.com%2Fcss%3Ffamily%3DPoppins;" parent="1" vertex="1">
          <mxGeometry x="100" y="640" width="420" height="210" as="geometry" />
        </mxCell>
        <mxCell id="W9po3mfyd_u9onLCYTtr-115" value="" style="group;fillStyle=hatch;rounded=1;arcSize=5;fontSize=7;fontFamily=Poppins;fontSource=https%3A%2F%2Ffonts.googleapis.com%2Fcss%3Ffamily%3DPoppins;" parent="1" vertex="1" connectable="0">
          <mxGeometry x="120" y="420" width="400" height="206.69" as="geometry" />
        </mxCell>
        <mxCell id="P8fs_v2lmVW-Hmvv1wTS-99" value="" style="rounded=1;whiteSpace=wrap;html=1;shadow=0;arcSize=4;fillColor=#e1d5e7;strokeColor=#9673a6;glass=0;fillStyle=hatch;fontFamily=Poppins;fontSource=https%3A%2F%2Ffonts.googleapis.com%2Fcss%3Ffamily%3DPoppins;" parent="W9po3mfyd_u9onLCYTtr-115" vertex="1">
          <mxGeometry x="-20" y="-2.220446049250313e-15" width="420" height="210" as="geometry" />
        </mxCell>
        <mxCell id="W9po3mfyd_u9onLCYTtr-72" value="," style="group;fontSize=7;verticalAlign=middle;fontStyle=0;fontFamily=Poppins;fontSource=https%3A%2F%2Ffonts.googleapis.com%2Fcss%3Ffamily%3DPoppins;" parent="W9po3mfyd_u9onLCYTtr-115" vertex="1" connectable="0">
          <mxGeometry x="199.99882692912615" y="59" width="185.37117307087385" height="144.37117307087385" as="geometry" />
        </mxCell>
        <mxCell id="W9po3mfyd_u9onLCYTtr-73" value="6" style="rounded=1;whiteSpace=wrap;html=1;fontSize=7;verticalAlign=middle;fontStyle=0;fontFamily=Poppins;fillColor=#f5f5f5;fontColor=#333333;strokeColor=#666666;fontSource=https%3A%2F%2Ffonts.googleapis.com%2Fcss%3Ffamily%3DPoppins;" parent="W9po3mfyd_u9onLCYTtr-72" vertex="1">
          <mxGeometry x="35.37117307087385" width="30" height="30" as="geometry" />
        </mxCell>
        <mxCell id="W9po3mfyd_u9onLCYTtr-74" value="#" style="rounded=1;whiteSpace=wrap;html=1;fontSize=7;verticalAlign=middle;fontStyle=0;fontFamily=Poppins;fillColor=#f5f5f5;fontColor=#333333;strokeColor=#666666;fontSource=https%3A%2F%2Ffonts.googleapis.com%2Fcss%3Ffamily%3DPoppins;" parent="W9po3mfyd_u9onLCYTtr-72" vertex="1">
          <mxGeometry x="35.37117307087385" y="30" width="30" height="30" as="geometry" />
        </mxCell>
        <mxCell id="W9po3mfyd_u9onLCYTtr-75" value="," style="rounded=1;whiteSpace=wrap;html=1;fontSize=7;verticalAlign=middle;fontStyle=0;fontFamily=Poppins;fillColor=#f5f5f5;fontColor=#333333;strokeColor=#666666;fontSource=https%3A%2F%2Ffonts.googleapis.com%2Fcss%3Ffamily%3DPoppins;" parent="W9po3mfyd_u9onLCYTtr-72" vertex="1">
          <mxGeometry x="35.37117307087385" y="60" width="30" height="30" as="geometry" />
        </mxCell>
        <mxCell id="W9po3mfyd_u9onLCYTtr-76" value="7" style="rounded=1;whiteSpace=wrap;html=1;fontSize=7;verticalAlign=middle;fontStyle=0;fontFamily=Poppins;fillColor=#f5f5f5;fontColor=#333333;strokeColor=#666666;fontSource=https%3A%2F%2Ffonts.googleapis.com%2Fcss%3Ffamily%3DPoppins;" parent="W9po3mfyd_u9onLCYTtr-72" vertex="1">
          <mxGeometry x="65.37117307087385" width="30" height="30" as="geometry" />
        </mxCell>
        <mxCell id="W9po3mfyd_u9onLCYTtr-77" value="~" style="rounded=1;whiteSpace=wrap;html=1;fontSize=7;verticalAlign=middle;fontStyle=0;fontFamily=Poppins;fillColor=#f5f5f5;fontColor=#333333;strokeColor=#666666;fontSource=https%3A%2F%2Ffonts.googleapis.com%2Fcss%3Ffamily%3DPoppins;" parent="W9po3mfyd_u9onLCYTtr-72" vertex="1">
          <mxGeometry x="65.37117307087385" y="30" width="30" height="30" as="geometry" />
        </mxCell>
        <mxCell id="W9po3mfyd_u9onLCYTtr-78" value="." style="rounded=1;whiteSpace=wrap;html=1;fontSize=7;verticalAlign=middle;fontStyle=0;fontFamily=Poppins;fillColor=#f5f5f5;fontColor=#333333;strokeColor=#666666;fontSource=https%3A%2F%2Ffonts.googleapis.com%2Fcss%3Ffamily%3DPoppins;" parent="W9po3mfyd_u9onLCYTtr-72" vertex="1">
          <mxGeometry x="65.37117307087385" y="60" width="30" height="30" as="geometry" />
        </mxCell>
        <mxCell id="W9po3mfyd_u9onLCYTtr-82" value="9" style="rounded=1;whiteSpace=wrap;html=1;fontSize=7;verticalAlign=middle;fontStyle=0;fontFamily=Poppins;fillColor=#f5f5f5;fontColor=#333333;strokeColor=#666666;fontSource=https%3A%2F%2Ffonts.googleapis.com%2Fcss%3Ffamily%3DPoppins;" parent="W9po3mfyd_u9onLCYTtr-72" vertex="1">
          <mxGeometry x="125.37117307087385" width="30" height="30" as="geometry" />
        </mxCell>
        <mxCell id="W9po3mfyd_u9onLCYTtr-83" value="&#39;" style="rounded=1;whiteSpace=wrap;html=1;fontSize=7;verticalAlign=middle;fontStyle=0;fontFamily=Poppins;fillColor=#f5f5f5;fontColor=#333333;strokeColor=#666666;fontSource=https%3A%2F%2Ffonts.googleapis.com%2Fcss%3Ffamily%3DPoppins;" parent="W9po3mfyd_u9onLCYTtr-72" vertex="1">
          <mxGeometry x="125.37117307087385" y="30" width="30" height="30" as="geometry" />
        </mxCell>
        <mxCell id="W9po3mfyd_u9onLCYTtr-84" value="up" style="rounded=1;whiteSpace=wrap;html=1;fontSize=7;verticalAlign=middle;fontStyle=0;fontFamily=Poppins;fillColor=#f5f5f5;fontColor=#333333;strokeColor=#666666;fontSource=https%3A%2F%2Ffonts.googleapis.com%2Fcss%3Ffamily%3DPoppins;" parent="W9po3mfyd_u9onLCYTtr-72" vertex="1">
          <mxGeometry x="125.37117307087385" y="60" width="30" height="30" as="geometry" />
        </mxCell>
        <mxCell id="W9po3mfyd_u9onLCYTtr-85" value="0" style="rounded=1;whiteSpace=wrap;html=1;fontSize=7;verticalAlign=middle;fontStyle=0;fontFamily=Poppins;fillColor=#f5f5f5;fontColor=#333333;strokeColor=#666666;fontSource=https%3A%2F%2Ffonts.googleapis.com%2Fcss%3Ffamily%3DPoppins;" parent="W9po3mfyd_u9onLCYTtr-72" vertex="1">
          <mxGeometry x="155.37117307087385" y="20" width="30" height="30" as="geometry" />
        </mxCell>
        <mxCell id="W9po3mfyd_u9onLCYTtr-86" value="enter&lt;br&gt;shift" style="rounded=1;whiteSpace=wrap;html=1;fontSize=7;verticalAlign=middle;fontStyle=0;fontFamily=Poppins;fillColor=#f5f5f5;fontColor=#333333;strokeColor=#666666;fontSource=https%3A%2F%2Ffonts.googleapis.com%2Fcss%3Ffamily%3DPoppins;" parent="W9po3mfyd_u9onLCYTtr-72" vertex="1">
          <mxGeometry x="155.37" y="50" width="30" height="30" as="geometry" />
        </mxCell>
        <mxCell id="W9po3mfyd_u9onLCYTtr-89" value="down" style="rounded=1;whiteSpace=wrap;html=1;fontSize=7;verticalAlign=middle;fontStyle=0;fontFamily=Poppins;fillColor=#f5f5f5;fontColor=#333333;strokeColor=#666666;fontSource=https%3A%2F%2Ffonts.googleapis.com%2Fcss%3Ffamily%3DPoppins;" parent="W9po3mfyd_u9onLCYTtr-72" vertex="1">
          <mxGeometry x="125.37117307087385" y="90" width="30" height="30" as="geometry" />
        </mxCell>
        <mxCell id="W9po3mfyd_u9onLCYTtr-90" value="esc&lt;br style=&quot;border-color: var(--border-color);&quot;&gt;layer2" style="rounded=1;whiteSpace=wrap;html=1;rotation=-15;fontSize=7;verticalAlign=middle;fontStyle=0;fontFamily=Poppins;fillColor=#f5f5f5;fontColor=#333333;strokeColor=#666666;fontSource=https%3A%2F%2Ffonts.googleapis.com%2Fcss%3Ffamily%3DPoppins;" parent="W9po3mfyd_u9onLCYTtr-72" vertex="1">
          <mxGeometry x="61.37117307087385" y="95.37" width="30" height="30" as="geometry" />
        </mxCell>
        <mxCell id="W9po3mfyd_u9onLCYTtr-91" value="" style="rounded=1;whiteSpace=wrap;html=1;rotation=-15;fontSize=7;verticalAlign=middle;fontStyle=0;fontFamily=Poppins;fillColor=#a6a6a6;fontColor=#333333;strokeColor=#666666;fontSource=https%3A%2F%2Ffonts.googleapis.com%2Fcss%3Ffamily%3DPoppins;" parent="W9po3mfyd_u9onLCYTtr-72" vertex="1">
          <mxGeometry x="32.37117307087385" y="103" width="30" height="30" as="geometry" />
        </mxCell>
        <mxCell id="W9po3mfyd_u9onLCYTtr-92" value="bspc&lt;br&gt;shift" style="rounded=1;whiteSpace=wrap;html=1;rotation=-15;fontSize=7;verticalAlign=middle;fontStyle=0;fontFamily=Poppins;fillColor=#f5f5f5;fontColor=#333333;strokeColor=#666666;fontSource=https%3A%2F%2Ffonts.googleapis.com%2Fcss%3Ffamily%3DPoppins;" parent="W9po3mfyd_u9onLCYTtr-72" vertex="1">
          <mxGeometry x="3.3711730708738514" y="111" width="30" height="30" as="geometry" />
        </mxCell>
        <mxCell id="W9po3mfyd_u9onLCYTtr-93" value="" style="group;fontSize=7;verticalAlign=middle;fontStyle=0;fontFamily=Poppins;fontSource=https%3A%2F%2Ffonts.googleapis.com%2Fcss%3Ffamily%3DPoppins;" parent="W9po3mfyd_u9onLCYTtr-115" vertex="1" connectable="0">
          <mxGeometry y="59" width="185.37117307087385" height="144.37117307087385" as="geometry" />
        </mxCell>
        <mxCell id="W9po3mfyd_u9onLCYTtr-94" value="2" style="rounded=1;whiteSpace=wrap;html=1;container=0;fontSize=7;verticalAlign=middle;fontStyle=0;fontFamily=Poppins;fillColor=#f5f5f5;fontColor=#333333;strokeColor=#666666;fontSource=https%3A%2F%2Ffonts.googleapis.com%2Fcss%3Ffamily%3DPoppins;" parent="W9po3mfyd_u9onLCYTtr-93" vertex="1">
          <mxGeometry x="30" width="30" height="30" as="geometry" />
        </mxCell>
        <mxCell id="W9po3mfyd_u9onLCYTtr-95" value="[" style="rounded=1;whiteSpace=wrap;html=1;container=0;fontSize=7;verticalAlign=middle;fontStyle=0;fontFamily=Poppins;fillColor=#f5f5f5;fontColor=#333333;strokeColor=#666666;fontSource=https%3A%2F%2Ffonts.googleapis.com%2Fcss%3Ffamily%3DPoppins;" parent="W9po3mfyd_u9onLCYTtr-93" vertex="1">
          <mxGeometry x="30" y="30" width="30" height="30" as="geometry" />
        </mxCell>
        <mxCell id="W9po3mfyd_u9onLCYTtr-96" value="/" style="rounded=1;whiteSpace=wrap;html=1;container=0;fontSize=7;verticalAlign=middle;fontStyle=0;fontFamily=Poppins;fillColor=#f5f5f5;fontColor=#333333;strokeColor=#666666;fontSource=https%3A%2F%2Ffonts.googleapis.com%2Fcss%3Ffamily%3DPoppins;" parent="W9po3mfyd_u9onLCYTtr-93" vertex="1">
          <mxGeometry x="30" y="60" width="30" height="30" as="geometry" />
        </mxCell>
        <mxCell id="W9po3mfyd_u9onLCYTtr-100" value="4" style="rounded=1;whiteSpace=wrap;html=1;container=0;fontSize=7;verticalAlign=middle;fontStyle=0;fontFamily=Poppins;fillColor=#f5f5f5;fontColor=#333333;strokeColor=#666666;fontSource=https%3A%2F%2Ffonts.googleapis.com%2Fcss%3Ffamily%3DPoppins;" parent="W9po3mfyd_u9onLCYTtr-93" vertex="1">
          <mxGeometry x="90" width="30" height="30" as="geometry" />
        </mxCell>
        <mxCell id="W9po3mfyd_u9onLCYTtr-101" value="(" style="rounded=1;whiteSpace=wrap;html=1;container=0;fontSize=7;verticalAlign=middle;fontStyle=0;fontFamily=Poppins;fillColor=#f5f5f5;fontColor=#333333;strokeColor=#666666;fontSource=https%3A%2F%2Ffonts.googleapis.com%2Fcss%3Ffamily%3DPoppins;" parent="W9po3mfyd_u9onLCYTtr-93" vertex="1">
          <mxGeometry x="90" y="30" width="30" height="30" as="geometry" />
        </mxCell>
        <mxCell id="W9po3mfyd_u9onLCYTtr-102" value="-" style="rounded=1;whiteSpace=wrap;html=1;container=0;fontSize=7;verticalAlign=middle;fontStyle=0;fontFamily=Poppins;fillColor=#f5f5f5;fontColor=#333333;strokeColor=#666666;fontSource=https%3A%2F%2Ffonts.googleapis.com%2Fcss%3Ffamily%3DPoppins;" parent="W9po3mfyd_u9onLCYTtr-93" vertex="1">
          <mxGeometry x="90" y="60" width="30" height="30" as="geometry" />
        </mxCell>
        <mxCell id="W9po3mfyd_u9onLCYTtr-103" value="5" style="rounded=1;whiteSpace=wrap;html=1;container=0;fontSize=7;verticalAlign=middle;fontStyle=0;fontFamily=Poppins;fillColor=#f5f5f5;fontColor=#333333;strokeColor=#666666;fontSource=https%3A%2F%2Ffonts.googleapis.com%2Fcss%3Ffamily%3DPoppins;" parent="W9po3mfyd_u9onLCYTtr-93" vertex="1">
          <mxGeometry x="120" width="30" height="30" as="geometry" />
        </mxCell>
        <mxCell id="W9po3mfyd_u9onLCYTtr-104" value=")" style="rounded=1;whiteSpace=wrap;html=1;container=0;fontSize=7;verticalAlign=middle;fontStyle=0;fontFamily=Poppins;fillColor=#f5f5f5;fontColor=#333333;strokeColor=#666666;fontSource=https%3A%2F%2Ffonts.googleapis.com%2Fcss%3Ffamily%3DPoppins;" parent="W9po3mfyd_u9onLCYTtr-93" vertex="1">
          <mxGeometry x="120" y="30" width="30" height="30" as="geometry" />
        </mxCell>
        <mxCell id="W9po3mfyd_u9onLCYTtr-105" value="=" style="rounded=1;whiteSpace=wrap;html=1;container=0;fontSize=7;verticalAlign=middle;fontStyle=0;fontFamily=Poppins;fillColor=#f5f5f5;fontColor=#333333;strokeColor=#666666;fontSource=https%3A%2F%2Ffonts.googleapis.com%2Fcss%3Ffamily%3DPoppins;" parent="W9po3mfyd_u9onLCYTtr-93" vertex="1">
          <mxGeometry x="120" y="60" width="30" height="30" as="geometry" />
        </mxCell>
        <mxCell id="W9po3mfyd_u9onLCYTtr-106" value="1" style="rounded=1;whiteSpace=wrap;html=1;container=0;fontSize=7;verticalAlign=middle;fontStyle=0;fontFamily=Poppins;fillColor=#f5f5f5;fontColor=#333333;strokeColor=#666666;fontSource=https%3A%2F%2Ffonts.googleapis.com%2Fcss%3Ffamily%3DPoppins;" parent="W9po3mfyd_u9onLCYTtr-93" vertex="1">
          <mxGeometry y="20" width="30" height="30" as="geometry" />
        </mxCell>
        <mxCell id="W9po3mfyd_u9onLCYTtr-107" value="`" style="rounded=1;whiteSpace=wrap;html=1;container=0;fontSize=7;verticalAlign=middle;fontStyle=0;fontFamily=Poppins;fillColor=#f5f5f5;fontColor=#333333;strokeColor=#666666;fontSource=https%3A%2F%2Ffonts.googleapis.com%2Fcss%3Ffamily%3DPoppins;" parent="W9po3mfyd_u9onLCYTtr-93" vertex="1">
          <mxGeometry y="50" width="30" height="30" as="geometry" />
        </mxCell>
        <mxCell id="W9po3mfyd_u9onLCYTtr-109" value="os" style="rounded=1;whiteSpace=wrap;html=1;container=0;fontSize=7;verticalAlign=middle;fontStyle=0;fontFamily=Poppins;fillColor=#f5f5f5;fontColor=#333333;strokeColor=#666666;fontSource=https%3A%2F%2Ffonts.googleapis.com%2Fcss%3Ffamily%3DPoppins;" parent="W9po3mfyd_u9onLCYTtr-93" vertex="1">
          <mxGeometry x="30" y="90" width="30" height="30" as="geometry" />
        </mxCell>
        <mxCell id="W9po3mfyd_u9onLCYTtr-111" value="esc&lt;br style=&quot;border-color: var(--border-color);&quot;&gt;layer2" style="rounded=1;whiteSpace=wrap;html=1;rotation=15;container=0;fontSize=7;verticalAlign=middle;fontStyle=0;fontFamily=Poppins;fillColor=#f5f5f5;fontColor=#333333;strokeColor=#666666;fontSource=https%3A%2F%2Ffonts.googleapis.com%2Fcss%3Ffamily%3DPoppins;" parent="W9po3mfyd_u9onLCYTtr-93" vertex="1">
          <mxGeometry x="94" y="95" width="30" height="30" as="geometry" />
        </mxCell>
        <mxCell id="W9po3mfyd_u9onLCYTtr-112" value="&lt;br style=&quot;border-color: var(--border-color); font-size: 7px;&quot;&gt;" style="rounded=1;whiteSpace=wrap;html=1;rotation=15;container=0;fontSize=7;verticalAlign=middle;fontStyle=0;fontFamily=Poppins;fillColor=#a6a6a6;fontColor=#333333;strokeColor=#666666;fontSource=https%3A%2F%2Ffonts.googleapis.com%2Fcss%3Ffamily%3DPoppins;" parent="W9po3mfyd_u9onLCYTtr-93" vertex="1">
          <mxGeometry x="123" y="103" width="30" height="30" as="geometry" />
        </mxCell>
        <mxCell id="W9po3mfyd_u9onLCYTtr-113" value="space&lt;br&gt;shift" style="rounded=1;whiteSpace=wrap;html=1;rotation=15;container=0;fontSize=7;verticalAlign=middle;fontStyle=0;fontFamily=Poppins;fillColor=#f5f5f5;fontColor=#333333;strokeColor=#666666;fontSource=https%3A%2F%2Ffonts.googleapis.com%2Fcss%3Ffamily%3DPoppins;" parent="W9po3mfyd_u9onLCYTtr-93" vertex="1">
          <mxGeometry x="152" y="111" width="30" height="30" as="geometry" />
        </mxCell>
        <mxCell id="W9po3mfyd_u9onLCYTtr-114" value="Layer 1&lt;span style=&quot;white-space: pre;&quot;&gt;&#x9;&lt;/span&gt;&#39;NUM/SYM&#39;" style="text;html=1;verticalAlign=middle;align=left;fontFamily=Poppins;fontSource=https%3A%2F%2Ffonts.googleapis.com%2Fcss%3Ffamily%3DPoppins;fontStyle=3" parent="W9po3mfyd_u9onLCYTtr-115" vertex="1">
          <mxGeometry width="200" height="40" as="geometry" />
        </mxCell>
        <mxCell id="W9po3mfyd_u9onLCYTtr-108" value="ctrl" style="rounded=1;whiteSpace=wrap;html=1;container=0;fontSize=7;verticalAlign=middle;fontStyle=0;fontFamily=Poppins;fillColor=#f5f5f5;fontColor=#333333;strokeColor=#666666;fontSource=https%3A%2F%2Ffonts.googleapis.com%2Fcss%3Ffamily%3DPoppins;" parent="W9po3mfyd_u9onLCYTtr-115" vertex="1">
          <mxGeometry y="140" width="30" height="30" as="geometry" />
        </mxCell>
        <mxCell id="W9po3mfyd_u9onLCYTtr-110" value="alt" style="rounded=1;whiteSpace=wrap;html=1;container=0;fontSize=7;verticalAlign=middle;fontStyle=0;fontFamily=Poppins;fillColor=#f5f5f5;fontColor=#333333;strokeColor=#666666;fontSource=https%3A%2F%2Ffonts.googleapis.com%2Fcss%3Ffamily%3DPoppins;" parent="W9po3mfyd_u9onLCYTtr-115" vertex="1">
          <mxGeometry x="60" y="140" width="30" height="30" as="geometry" />
        </mxCell>
        <mxCell id="W9po3mfyd_u9onLCYTtr-99" value="*" style="rounded=1;whiteSpace=wrap;html=1;container=0;fontSize=7;verticalAlign=middle;fontStyle=0;fontFamily=Poppins;fillColor=#f5f5f5;fontColor=#333333;strokeColor=#666666;fontSource=https%3A%2F%2Ffonts.googleapis.com%2Fcss%3Ffamily%3DPoppins;" parent="W9po3mfyd_u9onLCYTtr-115" vertex="1">
          <mxGeometry x="60" y="110" width="30" height="30" as="geometry" />
        </mxCell>
        <mxCell id="W9po3mfyd_u9onLCYTtr-98" value="]" style="rounded=1;whiteSpace=wrap;html=1;container=0;fontSize=7;verticalAlign=middle;fontStyle=0;fontFamily=Poppins;fillColor=#f5f5f5;fontColor=#333333;strokeColor=#666666;fontSource=https%3A%2F%2Ffonts.googleapis.com%2Fcss%3Ffamily%3DPoppins;" parent="W9po3mfyd_u9onLCYTtr-115" vertex="1">
          <mxGeometry x="60" y="80" width="30" height="30" as="geometry" />
        </mxCell>
        <mxCell id="W9po3mfyd_u9onLCYTtr-97" value="3" style="rounded=1;whiteSpace=wrap;html=1;container=0;fontSize=7;verticalAlign=middle;fontStyle=0;fontFamily=Poppins;fillColor=#f5f5f5;fontColor=#333333;strokeColor=#666666;fontSource=https%3A%2F%2Ffonts.googleapis.com%2Fcss%3Ffamily%3DPoppins;" parent="W9po3mfyd_u9onLCYTtr-115" vertex="1">
          <mxGeometry x="60" y="50" width="30" height="30" as="geometry" />
        </mxCell>
        <mxCell id="W9po3mfyd_u9onLCYTtr-87" value="left" style="rounded=1;whiteSpace=wrap;html=1;fontSize=7;verticalAlign=middle;fontStyle=0;fontFamily=Poppins;fillColor=#f5f5f5;fontColor=#333333;strokeColor=#666666;fontSource=https%3A%2F%2Ffonts.googleapis.com%2Fcss%3Ffamily%3DPoppins;" parent="W9po3mfyd_u9onLCYTtr-115" vertex="1">
          <mxGeometry x="355.37" y="140" width="30" height="30" as="geometry" />
        </mxCell>
        <mxCell id="W9po3mfyd_u9onLCYTtr-88" value="right" style="rounded=1;whiteSpace=wrap;html=1;fontSize=7;verticalAlign=middle;fontStyle=0;fontFamily=Poppins;fillColor=#f5f5f5;fontColor=#333333;strokeColor=#666666;fontSource=https%3A%2F%2Ffonts.googleapis.com%2Fcss%3Ffamily%3DPoppins;" parent="W9po3mfyd_u9onLCYTtr-115" vertex="1">
          <mxGeometry x="295.37" y="140" width="30" height="30" as="geometry" />
        </mxCell>
        <mxCell id="W9po3mfyd_u9onLCYTtr-81" value="?" style="rounded=1;whiteSpace=wrap;html=1;fontSize=7;verticalAlign=middle;fontStyle=0;fontFamily=Poppins;fillColor=#f5f5f5;fontColor=#333333;strokeColor=#666666;fontSource=https%3A%2F%2Ffonts.googleapis.com%2Fcss%3Ffamily%3DPoppins;" parent="W9po3mfyd_u9onLCYTtr-115" vertex="1">
          <mxGeometry x="295.37" y="110" width="30" height="30" as="geometry" />
        </mxCell>
        <mxCell id="W9po3mfyd_u9onLCYTtr-80" value="&amp;amp;" style="rounded=1;whiteSpace=wrap;html=1;fontSize=7;verticalAlign=middle;fontStyle=0;fontFamily=Poppins;fillColor=#f5f5f5;fontColor=#333333;strokeColor=#666666;fontSource=https%3A%2F%2Ffonts.googleapis.com%2Fcss%3Ffamily%3DPoppins;" parent="W9po3mfyd_u9onLCYTtr-115" vertex="1">
          <mxGeometry x="295.37" y="80" width="30" height="30" as="geometry" />
        </mxCell>
        <mxCell id="W9po3mfyd_u9onLCYTtr-79" value="8" style="rounded=1;whiteSpace=wrap;html=1;fontSize=7;verticalAlign=middle;fontStyle=0;fontFamily=Poppins;fillColor=#f5f5f5;fontColor=#333333;strokeColor=#666666;fontSource=https%3A%2F%2Ffonts.googleapis.com%2Fcss%3Ffamily%3DPoppins;" parent="W9po3mfyd_u9onLCYTtr-115" vertex="1">
          <mxGeometry x="295.37" y="50" width="30" height="30" as="geometry" />
        </mxCell>
        <mxCell id="W9po3mfyd_u9onLCYTtr-116" value="" style="group;fillStyle=hatch;rounded=1;arcSize=6;glass=0;shadow=0;fontSize=7;fontFamily=Poppins;fontSource=https%3A%2F%2Ffonts.googleapis.com%2Fcss%3Ffamily%3DPoppins;" parent="1" vertex="1" connectable="0">
          <mxGeometry x="120" y="200" width="400" height="210" as="geometry" />
        </mxCell>
        <mxCell id="P8fs_v2lmVW-Hmvv1wTS-98" value="" style="rounded=1;whiteSpace=wrap;html=1;shadow=0;arcSize=4;fillColor=#fff2cc;strokeColor=#d6b656;glass=0;fillStyle=hatch;fontFamily=Poppins;fontSource=https%3A%2F%2Ffonts.googleapis.com%2Fcss%3Ffamily%3DPoppins;" parent="W9po3mfyd_u9onLCYTtr-116" vertex="1">
          <mxGeometry x="-20" width="420" height="210" as="geometry" />
        </mxCell>
        <mxCell id="W9po3mfyd_u9onLCYTtr-69" value="" style="group;fontSize=7;verticalAlign=middle;fontStyle=0;fontFamily=Poppins;fontSource=https%3A%2F%2Ffonts.googleapis.com%2Fcss%3Ffamily%3DPoppins;" parent="W9po3mfyd_u9onLCYTtr-116" vertex="1" connectable="0">
          <mxGeometry x="199.99882692912615" y="59" width="185.37117307087385" height="144.37117307087385" as="geometry" />
        </mxCell>
        <mxCell id="W9po3mfyd_u9onLCYTtr-47" value="y" style="rounded=1;whiteSpace=wrap;html=1;fontSize=7;verticalAlign=middle;fontStyle=0;fontFamily=Poppins;fillColor=#f5f5f5;fontColor=#333333;strokeColor=#666666;fontSource=https%3A%2F%2Ffonts.googleapis.com%2Fcss%3Ffamily%3DPoppins;" parent="W9po3mfyd_u9onLCYTtr-69" vertex="1">
          <mxGeometry x="35.37117307087385" width="30" height="30" as="geometry" />
        </mxCell>
        <mxCell id="W9po3mfyd_u9onLCYTtr-48" value="h" style="rounded=1;whiteSpace=wrap;html=1;fontSize=7;verticalAlign=middle;fontStyle=0;fontFamily=Poppins;fillColor=#f5f5f5;fontColor=#333333;strokeColor=#666666;fontSource=https%3A%2F%2Ffonts.googleapis.com%2Fcss%3Ffamily%3DPoppins;" parent="W9po3mfyd_u9onLCYTtr-69" vertex="1">
          <mxGeometry x="35.37117307087385" y="30" width="30" height="30" as="geometry" />
        </mxCell>
        <mxCell id="W9po3mfyd_u9onLCYTtr-49" value="n" style="rounded=1;whiteSpace=wrap;html=1;fontSize=7;verticalAlign=middle;fontStyle=0;fontFamily=Poppins;fillColor=#f5f5f5;fontColor=#333333;strokeColor=#666666;fontSource=https%3A%2F%2Ffonts.googleapis.com%2Fcss%3Ffamily%3DPoppins;" parent="W9po3mfyd_u9onLCYTtr-69" vertex="1">
          <mxGeometry x="35.37117307087385" y="60" width="30" height="30" as="geometry" />
        </mxCell>
        <mxCell id="W9po3mfyd_u9onLCYTtr-50" value="u" style="rounded=1;whiteSpace=wrap;html=1;fontSize=7;verticalAlign=middle;fontStyle=0;fontFamily=Poppins;fillColor=#f5f5f5;fontColor=#333333;strokeColor=#666666;fontSource=https%3A%2F%2Ffonts.googleapis.com%2Fcss%3Ffamily%3DPoppins;" parent="W9po3mfyd_u9onLCYTtr-69" vertex="1">
          <mxGeometry x="65.37117307087385" width="30" height="30" as="geometry" />
        </mxCell>
        <mxCell id="W9po3mfyd_u9onLCYTtr-51" value="j" style="rounded=1;whiteSpace=wrap;html=1;fontSize=7;verticalAlign=middle;fontStyle=0;fontFamily=Poppins;fillColor=#f5f5f5;fontColor=#333333;strokeColor=#666666;fontSource=https%3A%2F%2Ffonts.googleapis.com%2Fcss%3Ffamily%3DPoppins;" parent="W9po3mfyd_u9onLCYTtr-69" vertex="1">
          <mxGeometry x="65.37117307087385" y="30" width="30" height="30" as="geometry" />
        </mxCell>
        <mxCell id="W9po3mfyd_u9onLCYTtr-52" value="m" style="rounded=1;whiteSpace=wrap;html=1;fontSize=7;verticalAlign=middle;fontStyle=0;fontFamily=Poppins;fillColor=#f5f5f5;fontColor=#333333;strokeColor=#666666;fontSource=https%3A%2F%2Ffonts.googleapis.com%2Fcss%3Ffamily%3DPoppins;" parent="W9po3mfyd_u9onLCYTtr-69" vertex="1">
          <mxGeometry x="65.37117307087385" y="60" width="30" height="30" as="geometry" />
        </mxCell>
        <mxCell id="W9po3mfyd_u9onLCYTtr-56" value="o" style="rounded=1;whiteSpace=wrap;html=1;fontSize=7;verticalAlign=middle;fontStyle=0;fontFamily=Poppins;fillColor=#f5f5f5;fontColor=#333333;strokeColor=#666666;fontSource=https%3A%2F%2Ffonts.googleapis.com%2Fcss%3Ffamily%3DPoppins;" parent="W9po3mfyd_u9onLCYTtr-69" vertex="1">
          <mxGeometry x="125.37117307087385" width="30" height="30" as="geometry" />
        </mxCell>
        <mxCell id="W9po3mfyd_u9onLCYTtr-57" value="l" style="rounded=1;whiteSpace=wrap;html=1;fontSize=7;verticalAlign=middle;fontStyle=0;fontFamily=Poppins;fillColor=#f5f5f5;fontColor=#333333;strokeColor=#666666;fontSource=https%3A%2F%2Ffonts.googleapis.com%2Fcss%3Ffamily%3DPoppins;" parent="W9po3mfyd_u9onLCYTtr-69" vertex="1">
          <mxGeometry x="125.37117307087385" y="30" width="30" height="30" as="geometry" />
        </mxCell>
        <mxCell id="W9po3mfyd_u9onLCYTtr-58" value="up" style="rounded=1;whiteSpace=wrap;html=1;fontSize=7;verticalAlign=middle;fontStyle=0;fontFamily=Poppins;fillColor=#f5f5f5;fontColor=#333333;strokeColor=#666666;fontSource=https%3A%2F%2Ffonts.googleapis.com%2Fcss%3Ffamily%3DPoppins;" parent="W9po3mfyd_u9onLCYTtr-69" vertex="1">
          <mxGeometry x="125.37117307087385" y="60" width="30" height="30" as="geometry" />
        </mxCell>
        <mxCell id="W9po3mfyd_u9onLCYTtr-59" value="p" style="rounded=1;whiteSpace=wrap;html=1;fontSize=7;verticalAlign=middle;fontStyle=0;fontFamily=Poppins;fillColor=#f5f5f5;fontColor=#333333;strokeColor=#666666;fontSource=https%3A%2F%2Ffonts.googleapis.com%2Fcss%3Ffamily%3DPoppins;" parent="W9po3mfyd_u9onLCYTtr-69" vertex="1">
          <mxGeometry x="155.37117307087385" y="20" width="30" height="30" as="geometry" />
        </mxCell>
        <mxCell id="W9po3mfyd_u9onLCYTtr-60" value="enter&lt;br style=&quot;font-size: 7px;&quot;&gt;shift" style="rounded=1;whiteSpace=wrap;html=1;fontSize=7;verticalAlign=middle;fontStyle=0;fontFamily=Poppins;fillColor=#f5f5f5;fontColor=#333333;strokeColor=#666666;fontSource=https%3A%2F%2Ffonts.googleapis.com%2Fcss%3Ffamily%3DPoppins;" parent="W9po3mfyd_u9onLCYTtr-69" vertex="1">
          <mxGeometry x="155.37" y="50" width="30" height="30" as="geometry" />
        </mxCell>
        <mxCell id="W9po3mfyd_u9onLCYTtr-63" value="down" style="rounded=1;whiteSpace=wrap;html=1;fontSize=7;verticalAlign=middle;fontStyle=0;fontFamily=Poppins;fillColor=#f5f5f5;fontColor=#333333;strokeColor=#666666;fontSource=https%3A%2F%2Ffonts.googleapis.com%2Fcss%3Ffamily%3DPoppins;" parent="W9po3mfyd_u9onLCYTtr-69" vertex="1">
          <mxGeometry x="125.37117307087385" y="90" width="30" height="30" as="geometry" />
        </mxCell>
        <mxCell id="W9po3mfyd_u9onLCYTtr-64" value="tab&lt;br style=&quot;font-size: 7px;&quot;&gt;layer2" style="rounded=1;whiteSpace=wrap;html=1;rotation=-15;fontSize=7;verticalAlign=middle;fontStyle=0;fontFamily=Poppins;fillColor=#f5f5f5;fontColor=#333333;strokeColor=#666666;fontSource=https%3A%2F%2Ffonts.googleapis.com%2Fcss%3Ffamily%3DPoppins;" parent="W9po3mfyd_u9onLCYTtr-69" vertex="1">
          <mxGeometry x="61.37117307087385" y="95.37" width="30" height="30" as="geometry" />
        </mxCell>
        <mxCell id="W9po3mfyd_u9onLCYTtr-65" value="del&lt;br style=&quot;font-size: 7px;&quot;&gt;layer1" style="rounded=1;whiteSpace=wrap;html=1;rotation=-15;fontSize=7;verticalAlign=middle;fontStyle=0;fontFamily=Poppins;fillColor=#f5f5f5;fontColor=#333333;strokeColor=#666666;fontSource=https%3A%2F%2Ffonts.googleapis.com%2Fcss%3Ffamily%3DPoppins;" parent="W9po3mfyd_u9onLCYTtr-69" vertex="1">
          <mxGeometry x="32.37117307087385" y="103" width="30" height="30" as="geometry" />
        </mxCell>
        <mxCell id="W9po3mfyd_u9onLCYTtr-67" value="bspc&lt;br style=&quot;font-size: 7px;&quot;&gt;shift" style="rounded=1;whiteSpace=wrap;html=1;rotation=-15;fontSize=7;verticalAlign=middle;fontStyle=0;fontFamily=Poppins;fillColor=#f5f5f5;fontColor=#333333;strokeColor=#666666;fontSource=https%3A%2F%2Ffonts.googleapis.com%2Fcss%3Ffamily%3DPoppins;" parent="W9po3mfyd_u9onLCYTtr-69" vertex="1">
          <mxGeometry x="3.3711730708738514" y="111" width="30" height="30" as="geometry" />
        </mxCell>
        <mxCell id="W9po3mfyd_u9onLCYTtr-71" value="Layer 0&lt;span style=&quot;white-space: pre;&quot;&gt;&#x9;&lt;/span&gt;&#39;Alphas&#39;" style="text;strokeColor=none;fillColor=none;html=1;verticalAlign=middle;align=left;fontFamily=Poppins;fontSource=https%3A%2F%2Ffonts.googleapis.com%2Fcss%3Ffamily%3DPoppins;fontStyle=3" parent="W9po3mfyd_u9onLCYTtr-116" vertex="1">
          <mxGeometry width="190" height="40" as="geometry" />
        </mxCell>
        <mxCell id="W9po3mfyd_u9onLCYTtr-53" value="i" style="rounded=1;whiteSpace=wrap;html=1;fontSize=7;verticalAlign=middle;fontStyle=0;fontFamily=Poppins;fillColor=#f5f5f5;fontColor=#333333;strokeColor=#666666;fontSource=https%3A%2F%2Ffonts.googleapis.com%2Fcss%3Ffamily%3DPoppins;" parent="W9po3mfyd_u9onLCYTtr-116" vertex="1">
          <mxGeometry x="295.37" y="50" width="30" height="30" as="geometry" />
        </mxCell>
        <mxCell id="W9po3mfyd_u9onLCYTtr-54" value="k" style="rounded=1;whiteSpace=wrap;html=1;fontSize=7;verticalAlign=middle;fontStyle=0;fontFamily=Poppins;fillColor=#f5f5f5;fontColor=#333333;strokeColor=#666666;fontSource=https%3A%2F%2Ffonts.googleapis.com%2Fcss%3Ffamily%3DPoppins;" parent="W9po3mfyd_u9onLCYTtr-116" vertex="1">
          <mxGeometry x="295.37" y="80" width="30" height="30" as="geometry" />
        </mxCell>
        <mxCell id="W9po3mfyd_u9onLCYTtr-55" value="M" style="rounded=1;whiteSpace=wrap;html=1;fontSize=7;verticalAlign=middle;fontStyle=0;fontFamily=Poppins;fillColor=#f5f5f5;fontColor=#333333;strokeColor=#666666;fontSource=https%3A%2F%2Ffonts.googleapis.com%2Fcss%3Ffamily%3DPoppins;" parent="W9po3mfyd_u9onLCYTtr-116" vertex="1">
          <mxGeometry x="295.37" y="109" width="30" height="30" as="geometry" />
        </mxCell>
        <mxCell id="W9po3mfyd_u9onLCYTtr-62" value="right" style="rounded=1;whiteSpace=wrap;html=1;fontSize=7;verticalAlign=middle;fontStyle=0;fontFamily=Poppins;fillColor=#f5f5f5;fontColor=#333333;strokeColor=#666666;fontSource=https%3A%2F%2Ffonts.googleapis.com%2Fcss%3Ffamily%3DPoppins;" parent="W9po3mfyd_u9onLCYTtr-116" vertex="1">
          <mxGeometry x="295.37" y="140" width="30" height="30" as="geometry" />
        </mxCell>
        <mxCell id="W9po3mfyd_u9onLCYTtr-61" value="left" style="rounded=1;whiteSpace=wrap;html=1;fontSize=7;verticalAlign=middle;fontStyle=0;fontFamily=Poppins;fillColor=#f5f5f5;fontColor=#333333;strokeColor=#666666;fontSource=https%3A%2F%2Ffonts.googleapis.com%2Fcss%3Ffamily%3DPoppins;" parent="W9po3mfyd_u9onLCYTtr-116" vertex="1">
          <mxGeometry x="355.37" y="140" width="30" height="30" as="geometry" />
        </mxCell>
        <mxCell id="MILP-HIRvvkqn21aa2Kt-2" value="" style="group" vertex="1" connectable="0" parent="W9po3mfyd_u9onLCYTtr-116">
          <mxGeometry y="50" width="185.37117307087385" height="153.37117307087385" as="geometry" />
        </mxCell>
        <mxCell id="W9po3mfyd_u9onLCYTtr-17" value="ctrl" style="rounded=1;whiteSpace=wrap;html=1;container=0;fontSize=7;verticalAlign=middle;fontStyle=0;fontFamily=Poppins;fillColor=#f5f5f5;fontColor=#333333;strokeColor=#666666;fontSource=https%3A%2F%2Ffonts.googleapis.com%2Fcss%3Ffamily%3DPoppins;" parent="MILP-HIRvvkqn21aa2Kt-2" vertex="1">
          <mxGeometry y="90" width="30" height="30" as="geometry" />
        </mxCell>
        <mxCell id="MILP-HIRvvkqn21aa2Kt-1" value="" style="group" vertex="1" connectable="0" parent="MILP-HIRvvkqn21aa2Kt-2">
          <mxGeometry width="185.37117307087385" height="153.37117307087385" as="geometry" />
        </mxCell>
        <mxCell id="W9po3mfyd_u9onLCYTtr-70" value="" style="group;fontSize=7;verticalAlign=middle;fontStyle=0;fontFamily=Poppins;fontSource=https%3A%2F%2Ffonts.googleapis.com%2Fcss%3Ffamily%3DPoppins;" parent="MILP-HIRvvkqn21aa2Kt-1" vertex="1" connectable="0">
          <mxGeometry y="9" width="185.37117307087385" height="144.37117307087385" as="geometry" />
        </mxCell>
        <mxCell id="W9po3mfyd_u9onLCYTtr-1" value="w" style="rounded=1;whiteSpace=wrap;html=1;container=0;fontSize=7;verticalAlign=middle;fontStyle=0;fontFamily=Poppins;fillColor=#f5f5f5;fontColor=#333333;strokeColor=#666666;fontSource=https%3A%2F%2Ffonts.googleapis.com%2Fcss%3Ffamily%3DPoppins;" parent="W9po3mfyd_u9onLCYTtr-70" vertex="1">
          <mxGeometry x="30" width="30" height="30" as="geometry" />
        </mxCell>
        <mxCell id="W9po3mfyd_u9onLCYTtr-3" value="s" style="rounded=1;whiteSpace=wrap;html=1;container=0;fontSize=7;verticalAlign=middle;fontStyle=0;fontFamily=Poppins;fillColor=#f5f5f5;fontColor=#333333;strokeColor=#666666;fontSource=https%3A%2F%2Ffonts.googleapis.com%2Fcss%3Ffamily%3DPoppins;" parent="W9po3mfyd_u9onLCYTtr-70" vertex="1">
          <mxGeometry x="30" y="30" width="30" height="30" as="geometry" />
        </mxCell>
        <mxCell id="W9po3mfyd_u9onLCYTtr-4" value="z" style="rounded=1;whiteSpace=wrap;html=1;container=0;fontSize=7;verticalAlign=middle;fontStyle=0;fontFamily=Poppins;fillColor=#f5f5f5;fontColor=#333333;strokeColor=#666666;fontSource=https%3A%2F%2Ffonts.googleapis.com%2Fcss%3Ffamily%3DPoppins;" parent="W9po3mfyd_u9onLCYTtr-70" vertex="1">
          <mxGeometry x="30" y="60" width="30" height="30" as="geometry" />
        </mxCell>
        <mxCell id="W9po3mfyd_u9onLCYTtr-9" value="r" style="rounded=1;whiteSpace=wrap;html=1;container=0;fontSize=7;verticalAlign=middle;fontStyle=0;fontFamily=Poppins;fillColor=#f5f5f5;fontColor=#333333;strokeColor=#666666;fontSource=https%3A%2F%2Ffonts.googleapis.com%2Fcss%3Ffamily%3DPoppins;" parent="W9po3mfyd_u9onLCYTtr-70" vertex="1">
          <mxGeometry x="90" width="30" height="30" as="geometry" />
        </mxCell>
        <mxCell id="W9po3mfyd_u9onLCYTtr-10" value="f" style="rounded=1;whiteSpace=wrap;html=1;container=0;fontSize=7;verticalAlign=middle;fontStyle=0;fontFamily=Poppins;fillColor=#f5f5f5;fontColor=#333333;strokeColor=#666666;fontSource=https%3A%2F%2Ffonts.googleapis.com%2Fcss%3Ffamily%3DPoppins;" parent="W9po3mfyd_u9onLCYTtr-70" vertex="1">
          <mxGeometry x="90" y="30" width="30" height="30" as="geometry" />
        </mxCell>
        <mxCell id="W9po3mfyd_u9onLCYTtr-11" value="c" style="rounded=1;whiteSpace=wrap;html=1;container=0;fontSize=7;verticalAlign=middle;fontStyle=0;fontFamily=Poppins;fillColor=#f5f5f5;fontColor=#333333;strokeColor=#666666;fontSource=https%3A%2F%2Ffonts.googleapis.com%2Fcss%3Ffamily%3DPoppins;" parent="W9po3mfyd_u9onLCYTtr-70" vertex="1">
          <mxGeometry x="90" y="60" width="30" height="30" as="geometry" />
        </mxCell>
        <mxCell id="W9po3mfyd_u9onLCYTtr-12" value="t" style="rounded=1;whiteSpace=wrap;html=1;container=0;fontSize=7;verticalAlign=middle;fontStyle=0;fontFamily=Poppins;fillColor=#f5f5f5;fontColor=#333333;strokeColor=#666666;fontSource=https%3A%2F%2Ffonts.googleapis.com%2Fcss%3Ffamily%3DPoppins;" parent="W9po3mfyd_u9onLCYTtr-70" vertex="1">
          <mxGeometry x="120" width="30" height="30" as="geometry" />
        </mxCell>
        <mxCell id="W9po3mfyd_u9onLCYTtr-13" value="g" style="rounded=1;whiteSpace=wrap;html=1;container=0;fontSize=7;verticalAlign=middle;fontStyle=0;fontFamily=Poppins;fillColor=#f5f5f5;fontColor=#333333;strokeColor=#666666;fontSource=https%3A%2F%2Ffonts.googleapis.com%2Fcss%3Ffamily%3DPoppins;" parent="W9po3mfyd_u9onLCYTtr-70" vertex="1">
          <mxGeometry x="120" y="30" width="30" height="30" as="geometry" />
        </mxCell>
        <mxCell id="W9po3mfyd_u9onLCYTtr-14" value="v" style="rounded=1;whiteSpace=wrap;html=1;container=0;fontSize=7;verticalAlign=middle;fontStyle=0;fontFamily=Poppins;fillColor=#f5f5f5;fontColor=#333333;strokeColor=#666666;fontSource=https%3A%2F%2Ffonts.googleapis.com%2Fcss%3Ffamily%3DPoppins;" parent="W9po3mfyd_u9onLCYTtr-70" vertex="1">
          <mxGeometry x="120" y="60" width="30" height="30" as="geometry" />
        </mxCell>
        <mxCell id="W9po3mfyd_u9onLCYTtr-15" value="q" style="rounded=1;whiteSpace=wrap;html=1;container=0;fontSize=7;verticalAlign=middle;fontStyle=0;fontFamily=Poppins;fillColor=#f5f5f5;fontColor=#333333;strokeColor=#666666;fontSource=https%3A%2F%2Ffonts.googleapis.com%2Fcss%3Ffamily%3DPoppins;" parent="W9po3mfyd_u9onLCYTtr-70" vertex="1">
          <mxGeometry y="20" width="30" height="30" as="geometry" />
        </mxCell>
        <mxCell id="W9po3mfyd_u9onLCYTtr-16" value="a" style="rounded=1;whiteSpace=wrap;html=1;container=0;fontSize=7;verticalAlign=middle;fontStyle=0;fontFamily=Poppins;fillColor=#f5f5f5;fontColor=#333333;strokeColor=#666666;fontSource=https%3A%2F%2Ffonts.googleapis.com%2Fcss%3Ffamily%3DPoppins;" parent="W9po3mfyd_u9onLCYTtr-70" vertex="1">
          <mxGeometry y="50" width="30" height="30" as="geometry" />
        </mxCell>
        <mxCell id="W9po3mfyd_u9onLCYTtr-18" value="os" style="rounded=1;whiteSpace=wrap;html=1;container=0;fontSize=7;verticalAlign=middle;fontStyle=0;fontFamily=Poppins;fillColor=#f5f5f5;fontColor=#333333;strokeColor=#666666;fontSource=https%3A%2F%2Ffonts.googleapis.com%2Fcss%3Ffamily%3DPoppins;" parent="W9po3mfyd_u9onLCYTtr-70" vertex="1">
          <mxGeometry x="30" y="90" width="30" height="30" as="geometry" />
        </mxCell>
        <mxCell id="MILP-HIRvvkqn21aa2Kt-3" value="" style="group" vertex="1" connectable="0" parent="W9po3mfyd_u9onLCYTtr-70">
          <mxGeometry x="90.62882692912616" y="91.62882692912616" width="94.74234614174769" height="52.74234614174769" as="geometry" />
        </mxCell>
        <mxCell id="W9po3mfyd_u9onLCYTtr-20" value="esc&lt;br style=&quot;font-size: 7px;&quot;&gt;layer2" style="rounded=1;whiteSpace=wrap;html=1;rotation=15;container=0;fontSize=7;verticalAlign=middle;fontStyle=0;fontFamily=Poppins;fillColor=#f5f5f5;fontColor=#333333;strokeColor=#666666;fontSource=https%3A%2F%2Ffonts.googleapis.com%2Fcss%3Ffamily%3DPoppins;" parent="MILP-HIRvvkqn21aa2Kt-3" vertex="1">
          <mxGeometry x="3.371173070873837" y="3.371173070873837" width="30" height="30" as="geometry" />
        </mxCell>
        <mxCell id="W9po3mfyd_u9onLCYTtr-21" value="tab&lt;br style=&quot;font-size: 7px;&quot;&gt;layer1" style="rounded=1;whiteSpace=wrap;html=1;rotation=15;container=0;fontSize=7;verticalAlign=middle;fontStyle=0;fontFamily=Poppins;fillColor=#f5f5f5;fontColor=#333333;strokeColor=#666666;fontSource=https%3A%2F%2Ffonts.googleapis.com%2Fcss%3Ffamily%3DPoppins;" parent="MILP-HIRvvkqn21aa2Kt-3" vertex="1">
          <mxGeometry x="32.37117307087384" y="11.371173070873837" width="30" height="30" as="geometry" />
        </mxCell>
        <mxCell id="W9po3mfyd_u9onLCYTtr-22" value="space&lt;br style=&quot;font-size: 7px;&quot;&gt;shift" style="rounded=1;whiteSpace=wrap;html=1;rotation=15;container=0;fontSize=7;verticalAlign=middle;fontStyle=0;fontFamily=Poppins;fillColor=#f5f5f5;fontColor=#333333;strokeColor=#666666;fontSource=https%3A%2F%2Ffonts.googleapis.com%2Fcss%3Ffamily%3DPoppins;" parent="MILP-HIRvvkqn21aa2Kt-3" vertex="1">
          <mxGeometry x="61.37117307087384" y="19.371173070873837" width="30" height="30" as="geometry" />
        </mxCell>
        <mxCell id="W9po3mfyd_u9onLCYTtr-6" value="e" style="rounded=1;whiteSpace=wrap;html=1;container=0;fontSize=7;verticalAlign=middle;fontStyle=0;fontFamily=Poppins;fillColor=#f5f5f5;fontColor=#333333;strokeColor=#666666;fontSource=https%3A%2F%2Ffonts.googleapis.com%2Fcss%3Ffamily%3DPoppins;" parent="MILP-HIRvvkqn21aa2Kt-1" vertex="1">
          <mxGeometry x="60" width="30" height="30" as="geometry" />
        </mxCell>
        <mxCell id="W9po3mfyd_u9onLCYTtr-7" value="d" style="rounded=1;whiteSpace=wrap;html=1;container=0;fontSize=7;verticalAlign=middle;fontStyle=0;fontFamily=Poppins;fillColor=#f5f5f5;fontColor=#333333;strokeColor=#666666;fontSource=https%3A%2F%2Ffonts.googleapis.com%2Fcss%3Ffamily%3DPoppins;" parent="MILP-HIRvvkqn21aa2Kt-1" vertex="1">
          <mxGeometry x="60" y="30" width="30" height="30" as="geometry" />
        </mxCell>
        <mxCell id="W9po3mfyd_u9onLCYTtr-8" value="x" style="rounded=1;whiteSpace=wrap;html=1;container=0;fontSize=7;verticalAlign=middle;fontStyle=0;fontFamily=Poppins;fillColor=#f5f5f5;fontColor=#333333;strokeColor=#666666;fontSource=https%3A%2F%2Ffonts.googleapis.com%2Fcss%3Ffamily%3DPoppins;" parent="MILP-HIRvvkqn21aa2Kt-1" vertex="1">
          <mxGeometry x="60" y="60" width="30" height="30" as="geometry" />
        </mxCell>
        <mxCell id="W9po3mfyd_u9onLCYTtr-19" value="alt" style="rounded=1;whiteSpace=wrap;html=1;container=0;fontSize=7;verticalAlign=middle;fontStyle=0;fontFamily=Poppins;fillColor=#f5f5f5;fontColor=#333333;strokeColor=#666666;fontSource=https%3A%2F%2Ffonts.googleapis.com%2Fcss%3Ffamily%3DPoppins;" parent="MILP-HIRvvkqn21aa2Kt-1" vertex="1">
          <mxGeometry x="60" y="90" width="30" height="30" as="geometry" />
        </mxCell>
        <mxCell id="xsFkYM95h0oVDre0GD-1-1" value="" style="group;fillStyle=hatch;rounded=1;arcSize=5;fontSize=7;fontFamily=Poppins;fontSource=https%3A%2F%2Ffonts.googleapis.com%2Fcss%3Ffamily%3DPoppins;" parent="1" vertex="1" connectable="0">
          <mxGeometry x="120" y="640" width="385.37" height="203.37117307087385" as="geometry" />
        </mxCell>
        <mxCell id="xsFkYM95h0oVDre0GD-1-2" value=";" style="group;fontSize=7;verticalAlign=middle;fontStyle=0;fontFamily=Poppins;fontSource=https%3A%2F%2Ffonts.googleapis.com%2Fcss%3Ffamily%3DPoppins;" parent="xsFkYM95h0oVDre0GD-1-1" vertex="1" connectable="0">
          <mxGeometry x="199.99882692912615" y="59" width="185.37117307087385" height="144.37117307087385" as="geometry" />
        </mxCell>
        <mxCell id="xsFkYM95h0oVDre0GD-1-3" value="F6" style="rounded=1;whiteSpace=wrap;html=1;fontSize=7;verticalAlign=middle;fontStyle=0;fontFamily=Poppins;fillColor=#f5f5f5;fontColor=#333333;strokeColor=#666666;fontSource=https%3A%2F%2Ffonts.googleapis.com%2Fcss%3Ffamily%3DPoppins;" parent="xsFkYM95h0oVDre0GD-1-2" vertex="1">
          <mxGeometry x="35.37117307087385" width="30" height="30" as="geometry" />
        </mxCell>
        <mxCell id="xsFkYM95h0oVDre0GD-1-4" value="@" style="rounded=1;whiteSpace=wrap;html=1;fontSize=7;verticalAlign=middle;fontStyle=0;fontFamily=Poppins;fillColor=#f5f5f5;fontColor=#333333;strokeColor=#666666;fontSource=https%3A%2F%2Ffonts.googleapis.com%2Fcss%3Ffamily%3DPoppins;" parent="xsFkYM95h0oVDre0GD-1-2" vertex="1">
          <mxGeometry x="35.37117307087385" y="30" width="30" height="30" as="geometry" />
        </mxCell>
        <mxCell id="xsFkYM95h0oVDre0GD-1-5" value=";" style="rounded=1;whiteSpace=wrap;html=1;fontSize=7;verticalAlign=middle;fontStyle=0;fontFamily=Poppins;fillColor=#f5f5f5;fontColor=#333333;strokeColor=#666666;fontSource=https%3A%2F%2Ffonts.googleapis.com%2Fcss%3Ffamily%3DPoppins;" parent="xsFkYM95h0oVDre0GD-1-2" vertex="1">
          <mxGeometry x="35.37117307087385" y="60" width="30" height="30" as="geometry" />
        </mxCell>
        <mxCell id="xsFkYM95h0oVDre0GD-1-6" value="F7" style="rounded=1;whiteSpace=wrap;html=1;fontSize=7;verticalAlign=middle;fontStyle=0;fontFamily=Poppins;fillColor=#f5f5f5;fontColor=#333333;strokeColor=#666666;fontSource=https%3A%2F%2Ffonts.googleapis.com%2Fcss%3Ffamily%3DPoppins;" parent="xsFkYM95h0oVDre0GD-1-2" vertex="1">
          <mxGeometry x="65.37117307087385" width="30" height="30" as="geometry" />
        </mxCell>
        <mxCell id="xsFkYM95h0oVDre0GD-1-7" value="$" style="rounded=1;whiteSpace=wrap;html=1;fontSize=7;verticalAlign=middle;fontStyle=0;fontFamily=Poppins;fillColor=#f5f5f5;fontColor=#333333;strokeColor=#666666;fontSource=https%3A%2F%2Ffonts.googleapis.com%2Fcss%3Ffamily%3DPoppins;" parent="xsFkYM95h0oVDre0GD-1-2" vertex="1">
          <mxGeometry x="65.37117307087385" y="30" width="30" height="30" as="geometry" />
        </mxCell>
        <mxCell id="xsFkYM95h0oVDre0GD-1-8" value=":" style="rounded=1;whiteSpace=wrap;html=1;fontSize=7;verticalAlign=middle;fontStyle=0;fontFamily=Poppins;fillColor=#f5f5f5;fontColor=#333333;strokeColor=#666666;fontSource=https%3A%2F%2Ffonts.googleapis.com%2Fcss%3Ffamily%3DPoppins;" parent="xsFkYM95h0oVDre0GD-1-2" vertex="1">
          <mxGeometry x="65.37117307087385" y="60" width="30" height="30" as="geometry" />
        </mxCell>
        <mxCell id="xsFkYM95h0oVDre0GD-1-9" value="F8" style="rounded=1;whiteSpace=wrap;html=1;fontSize=7;verticalAlign=middle;fontStyle=0;fontFamily=Poppins;fillColor=#f5f5f5;fontColor=#333333;strokeColor=#666666;fontSource=https%3A%2F%2Ffonts.googleapis.com%2Fcss%3Ffamily%3DPoppins;" parent="xsFkYM95h0oVDre0GD-1-2" vertex="1">
          <mxGeometry x="95.37117307087385" y="-9" width="30" height="30" as="geometry" />
        </mxCell>
        <mxCell id="xsFkYM95h0oVDre0GD-1-10" value="|" style="rounded=1;whiteSpace=wrap;html=1;fontSize=7;verticalAlign=middle;fontStyle=0;fontFamily=Poppins;fillColor=#f5f5f5;fontColor=#333333;strokeColor=#666666;fontSource=https%3A%2F%2Ffonts.googleapis.com%2Fcss%3Ffamily%3DPoppins;" parent="xsFkYM95h0oVDre0GD-1-2" vertex="1">
          <mxGeometry x="95.37117307087385" y="21" width="30" height="30" as="geometry" />
        </mxCell>
        <mxCell id="xsFkYM95h0oVDre0GD-1-11" value="!" style="rounded=1;whiteSpace=wrap;html=1;fontSize=7;verticalAlign=middle;fontStyle=0;fontFamily=Poppins;fillColor=#f5f5f5;fontColor=#333333;strokeColor=#666666;fontSource=https%3A%2F%2Ffonts.googleapis.com%2Fcss%3Ffamily%3DPoppins;" parent="xsFkYM95h0oVDre0GD-1-2" vertex="1">
          <mxGeometry x="95.37117307087385" y="51" width="30" height="30" as="geometry" />
        </mxCell>
        <mxCell id="xsFkYM95h0oVDre0GD-1-12" value="F9" style="rounded=1;whiteSpace=wrap;html=1;fontSize=7;verticalAlign=middle;fontStyle=0;fontFamily=Poppins;fillColor=#f5f5f5;fontColor=#333333;strokeColor=#666666;fontSource=https%3A%2F%2Ffonts.googleapis.com%2Fcss%3Ffamily%3DPoppins;" parent="xsFkYM95h0oVDre0GD-1-2" vertex="1">
          <mxGeometry x="125.37117307087385" width="30" height="30" as="geometry" />
        </mxCell>
        <mxCell id="xsFkYM95h0oVDre0GD-1-13" value="&quot;" style="rounded=1;whiteSpace=wrap;html=1;fontSize=7;verticalAlign=middle;fontStyle=0;fontFamily=Poppins;fillColor=#f5f5f5;fontColor=#333333;strokeColor=#666666;fontSource=https%3A%2F%2Ffonts.googleapis.com%2Fcss%3Ffamily%3DPoppins;" parent="xsFkYM95h0oVDre0GD-1-2" vertex="1">
          <mxGeometry x="125.37117307087385" y="30" width="30" height="30" as="geometry" />
        </mxCell>
        <mxCell id="xsFkYM95h0oVDre0GD-1-14" value="m_up" style="rounded=1;whiteSpace=wrap;html=1;fontSize=6;verticalAlign=middle;fontStyle=0;fontFamily=Poppins;fillColor=#f5f5f5;fontColor=#333333;strokeColor=#666666;fontSource=https%3A%2F%2Ffonts.googleapis.com%2Fcss%3Ffamily%3DPoppins;" parent="xsFkYM95h0oVDre0GD-1-2" vertex="1">
          <mxGeometry x="125.37117307087385" y="60" width="30" height="30" as="geometry" />
        </mxCell>
        <mxCell id="xsFkYM95h0oVDre0GD-1-15" value="F10" style="rounded=1;whiteSpace=wrap;html=1;fontSize=7;verticalAlign=middle;fontStyle=0;fontFamily=Poppins;fillColor=#f5f5f5;fontColor=#333333;strokeColor=#666666;fontSource=https%3A%2F%2Ffonts.googleapis.com%2Fcss%3Ffamily%3DPoppins;" parent="xsFkYM95h0oVDre0GD-1-2" vertex="1">
          <mxGeometry x="155.37117307087385" y="20" width="30" height="30" as="geometry" />
        </mxCell>
        <mxCell id="xsFkYM95h0oVDre0GD-1-16" value="F11" style="rounded=1;whiteSpace=wrap;html=1;fontSize=7;verticalAlign=middle;fontStyle=0;fontFamily=Poppins;fillColor=#f5f5f5;fontColor=#333333;strokeColor=#666666;fontSource=https%3A%2F%2Ffonts.googleapis.com%2Fcss%3Ffamily%3DPoppins;" parent="xsFkYM95h0oVDre0GD-1-2" vertex="1">
          <mxGeometry x="155.37" y="50" width="30" height="30" as="geometry" />
        </mxCell>
        <mxCell id="xsFkYM95h0oVDre0GD-1-17" value="m_right" style="rounded=1;whiteSpace=wrap;html=1;fontSize=6;verticalAlign=middle;fontStyle=0;fontFamily=Poppins;fillColor=#f5f5f5;fontColor=#333333;strokeColor=#666666;fontSource=https%3A%2F%2Ffonts.googleapis.com%2Fcss%3Ffamily%3DPoppins;" parent="xsFkYM95h0oVDre0GD-1-2" vertex="1">
          <mxGeometry x="155.37117307087385" y="81" width="30" height="30" as="geometry" />
        </mxCell>
        <mxCell id="xsFkYM95h0oVDre0GD-1-18" value="m_left" style="rounded=1;whiteSpace=wrap;html=1;fontSize=6;verticalAlign=middle;fontStyle=0;fontFamily=Poppins;fillColor=#f5f5f5;fontColor=#333333;strokeColor=#666666;fontSource=https%3A%2F%2Ffonts.googleapis.com%2Fcss%3Ffamily%3DPoppins;" parent="xsFkYM95h0oVDre0GD-1-2" vertex="1">
          <mxGeometry x="95.37117307087385" y="81" width="30" height="30" as="geometry" />
        </mxCell>
        <mxCell id="xsFkYM95h0oVDre0GD-1-19" value="m_down" style="rounded=1;whiteSpace=wrap;html=1;fontSize=6;verticalAlign=middle;fontStyle=0;fontFamily=Poppins;fillColor=#f5f5f5;fontColor=#333333;strokeColor=#666666;fontSource=https%3A%2F%2Ffonts.googleapis.com%2Fcss%3Ffamily%3DPoppins;" parent="xsFkYM95h0oVDre0GD-1-2" vertex="1">
          <mxGeometry x="125.37117307087385" y="90" width="30" height="30" as="geometry" />
        </mxCell>
        <mxCell id="xsFkYM95h0oVDre0GD-1-20" value="" style="rounded=1;whiteSpace=wrap;html=1;rotation=-15;fontSize=7;verticalAlign=middle;fontStyle=0;fontFamily=Poppins;fillColor=#a6a6a6;fontColor=#333333;strokeColor=#666666;fontSource=https%3A%2F%2Ffonts.googleapis.com%2Fcss%3Ffamily%3DPoppins;" parent="xsFkYM95h0oVDre0GD-1-2" vertex="1">
          <mxGeometry x="61.37117307087385" y="95.37" width="30" height="30" as="geometry" />
        </mxCell>
        <mxCell id="xsFkYM95h0oVDre0GD-1-21" value="whdown" style="rounded=1;whiteSpace=wrap;html=1;rotation=-15;fontSize=6;verticalAlign=middle;fontStyle=0;fontFamily=Poppins;fillColor=#f5f5f5;fontColor=#333333;strokeColor=#666666;fontSource=https%3A%2F%2Ffonts.googleapis.com%2Fcss%3Ffamily%3DPoppins;" parent="xsFkYM95h0oVDre0GD-1-2" vertex="1">
          <mxGeometry x="32.37117307087385" y="103" width="30" height="30" as="geometry" />
        </mxCell>
        <mxCell id="xsFkYM95h0oVDre0GD-1-22" value="wheelup" style="rounded=1;whiteSpace=wrap;html=1;rotation=-15;fontSize=6;verticalAlign=middle;fontStyle=0;fontFamily=Poppins;fillColor=#f5f5f5;fontColor=#333333;strokeColor=#666666;fontSource=https%3A%2F%2Ffonts.googleapis.com%2Fcss%3Ffamily%3DPoppins;" parent="xsFkYM95h0oVDre0GD-1-2" vertex="1">
          <mxGeometry x="3.3711730708738514" y="111" width="30" height="30" as="geometry" />
        </mxCell>
        <mxCell id="xsFkYM95h0oVDre0GD-1-23" value="" style="group;fontSize=7;verticalAlign=middle;fontStyle=0;fontFamily=Poppins;fontSource=https%3A%2F%2Ffonts.googleapis.com%2Fcss%3Ffamily%3DPoppins;" parent="xsFkYM95h0oVDre0GD-1-1" vertex="1" connectable="0">
          <mxGeometry y="59" width="185.37117307087385" height="144.37117307087385" as="geometry" />
        </mxCell>
        <mxCell id="xsFkYM95h0oVDre0GD-1-24" value="F2" style="rounded=1;whiteSpace=wrap;html=1;container=0;fontSize=7;verticalAlign=middle;fontStyle=0;fontFamily=Poppins;fillColor=#f5f5f5;fontColor=#333333;strokeColor=#666666;fontSource=https%3A%2F%2Ffonts.googleapis.com%2Fcss%3Ffamily%3DPoppins;" parent="xsFkYM95h0oVDre0GD-1-23" vertex="1">
          <mxGeometry x="30" width="30" height="30" as="geometry" />
        </mxCell>
        <mxCell id="xsFkYM95h0oVDre0GD-1-25" value="{" style="rounded=1;whiteSpace=wrap;html=1;container=0;fontSize=7;verticalAlign=middle;fontStyle=0;fontFamily=Poppins;fillColor=#f5f5f5;fontColor=#333333;strokeColor=#666666;fontSource=https%3A%2F%2Ffonts.googleapis.com%2Fcss%3Ffamily%3DPoppins;" parent="xsFkYM95h0oVDre0GD-1-23" vertex="1">
          <mxGeometry x="30" y="30" width="30" height="30" as="geometry" />
        </mxCell>
        <mxCell id="xsFkYM95h0oVDre0GD-1-26" value="%" style="rounded=1;whiteSpace=wrap;html=1;container=0;fontSize=7;verticalAlign=middle;fontStyle=0;fontFamily=Poppins;fillColor=#f5f5f5;fontColor=#333333;strokeColor=#666666;fontSource=https%3A%2F%2Ffonts.googleapis.com%2Fcss%3Ffamily%3DPoppins;" parent="xsFkYM95h0oVDre0GD-1-23" vertex="1">
          <mxGeometry x="30" y="60" width="30" height="30" as="geometry" />
        </mxCell>
        <mxCell id="xsFkYM95h0oVDre0GD-1-27" value="F3" style="rounded=1;whiteSpace=wrap;html=1;container=0;fontSize=7;verticalAlign=middle;fontStyle=0;fontFamily=Poppins;fillColor=#f5f5f5;fontColor=#333333;strokeColor=#666666;fontSource=https%3A%2F%2Ffonts.googleapis.com%2Fcss%3Ffamily%3DPoppins;" parent="xsFkYM95h0oVDre0GD-1-23" vertex="1">
          <mxGeometry x="60" y="-9" width="30" height="30" as="geometry" />
        </mxCell>
        <mxCell id="xsFkYM95h0oVDre0GD-1-28" value="}" style="rounded=1;whiteSpace=wrap;html=1;container=0;fontSize=7;verticalAlign=middle;fontStyle=0;fontFamily=Poppins;fillColor=#f5f5f5;fontColor=#333333;strokeColor=#666666;fontSource=https%3A%2F%2Ffonts.googleapis.com%2Fcss%3Ffamily%3DPoppins;" parent="xsFkYM95h0oVDre0GD-1-23" vertex="1">
          <mxGeometry x="60" y="21" width="30" height="30" as="geometry" />
        </mxCell>
        <mxCell id="xsFkYM95h0oVDre0GD-1-29" value="^" style="rounded=1;whiteSpace=wrap;html=1;container=0;fontSize=7;verticalAlign=middle;fontStyle=0;fontFamily=Poppins;fillColor=#f5f5f5;fontColor=#333333;strokeColor=#666666;fontSource=https%3A%2F%2Ffonts.googleapis.com%2Fcss%3Ffamily%3DPoppins;" parent="xsFkYM95h0oVDre0GD-1-23" vertex="1">
          <mxGeometry x="60" y="51" width="30" height="30" as="geometry" />
        </mxCell>
        <mxCell id="xsFkYM95h0oVDre0GD-1-30" value="F4" style="rounded=1;whiteSpace=wrap;html=1;container=0;fontSize=7;verticalAlign=middle;fontStyle=0;fontFamily=Poppins;fillColor=#f5f5f5;fontColor=#333333;strokeColor=#666666;fontSource=https%3A%2F%2Ffonts.googleapis.com%2Fcss%3Ffamily%3DPoppins;" parent="xsFkYM95h0oVDre0GD-1-23" vertex="1">
          <mxGeometry x="90" width="30" height="30" as="geometry" />
        </mxCell>
        <mxCell id="xsFkYM95h0oVDre0GD-1-31" value="&amp;lt;" style="rounded=1;whiteSpace=wrap;html=1;container=0;fontSize=7;verticalAlign=middle;fontStyle=0;fontFamily=Poppins;fillColor=#f5f5f5;fontColor=#333333;strokeColor=#666666;fontSource=https%3A%2F%2Ffonts.googleapis.com%2Fcss%3Ffamily%3DPoppins;" parent="xsFkYM95h0oVDre0GD-1-23" vertex="1">
          <mxGeometry x="90" y="30" width="30" height="30" as="geometry" />
        </mxCell>
        <mxCell id="xsFkYM95h0oVDre0GD-1-32" value="_" style="rounded=1;whiteSpace=wrap;html=1;container=0;fontSize=7;verticalAlign=middle;fontStyle=0;fontFamily=Poppins;fillColor=#f5f5f5;fontColor=#333333;strokeColor=#666666;fontSource=https%3A%2F%2Ffonts.googleapis.com%2Fcss%3Ffamily%3DPoppins;" parent="xsFkYM95h0oVDre0GD-1-23" vertex="1">
          <mxGeometry x="90" y="60" width="30" height="30" as="geometry" />
        </mxCell>
        <mxCell id="xsFkYM95h0oVDre0GD-1-33" value="F5" style="rounded=1;whiteSpace=wrap;html=1;container=0;fontSize=7;verticalAlign=middle;fontStyle=0;fontFamily=Poppins;fillColor=#f5f5f5;fontColor=#333333;strokeColor=#666666;fontSource=https%3A%2F%2Ffonts.googleapis.com%2Fcss%3Ffamily%3DPoppins;" parent="xsFkYM95h0oVDre0GD-1-23" vertex="1">
          <mxGeometry x="120" width="30" height="30" as="geometry" />
        </mxCell>
        <mxCell id="xsFkYM95h0oVDre0GD-1-34" value="&amp;gt;" style="rounded=1;whiteSpace=wrap;html=1;container=0;fontSize=7;verticalAlign=middle;fontStyle=0;fontFamily=Poppins;fillColor=#f5f5f5;fontColor=#333333;strokeColor=#666666;fontSource=https%3A%2F%2Ffonts.googleapis.com%2Fcss%3Ffamily%3DPoppins;" parent="xsFkYM95h0oVDre0GD-1-23" vertex="1">
          <mxGeometry x="120" y="30" width="30" height="30" as="geometry" />
        </mxCell>
        <mxCell id="xsFkYM95h0oVDre0GD-1-35" value="+" style="rounded=1;whiteSpace=wrap;html=1;container=0;fontSize=7;verticalAlign=middle;fontStyle=0;fontFamily=Poppins;fillColor=#f5f5f5;fontColor=#333333;strokeColor=#666666;fontSource=https%3A%2F%2Ffonts.googleapis.com%2Fcss%3Ffamily%3DPoppins;" parent="xsFkYM95h0oVDre0GD-1-23" vertex="1">
          <mxGeometry x="120" y="60" width="30" height="30" as="geometry" />
        </mxCell>
        <mxCell id="xsFkYM95h0oVDre0GD-1-36" value="F1" style="rounded=1;whiteSpace=wrap;html=1;container=0;fontSize=7;verticalAlign=middle;fontStyle=0;fontFamily=Poppins;fillColor=#f5f5f5;fontColor=#333333;strokeColor=#666666;fontSource=https%3A%2F%2Ffonts.googleapis.com%2Fcss%3Ffamily%3DPoppins;" parent="xsFkYM95h0oVDre0GD-1-23" vertex="1">
          <mxGeometry y="20" width="30" height="30" as="geometry" />
        </mxCell>
        <mxCell id="xsFkYM95h0oVDre0GD-1-37" value="F12" style="rounded=1;whiteSpace=wrap;html=1;container=0;fontSize=7;verticalAlign=middle;fontStyle=0;fontFamily=Poppins;fillColor=#f5f5f5;fontColor=#333333;strokeColor=#666666;fontSource=https%3A%2F%2Ffonts.googleapis.com%2Fcss%3Ffamily%3DPoppins;" parent="xsFkYM95h0oVDre0GD-1-23" vertex="1">
          <mxGeometry y="50" width="30" height="30" as="geometry" />
        </mxCell>
        <mxCell id="xsFkYM95h0oVDre0GD-1-38" value="ctrl" style="rounded=1;whiteSpace=wrap;html=1;container=0;fontSize=7;verticalAlign=middle;fontStyle=0;fontFamily=Poppins;fillColor=#f5f5f5;fontColor=#333333;strokeColor=#666666;fontSource=https%3A%2F%2Ffonts.googleapis.com%2Fcss%3Ffamily%3DPoppins;" parent="xsFkYM95h0oVDre0GD-1-23" vertex="1">
          <mxGeometry y="81" width="30" height="30" as="geometry" />
        </mxCell>
        <mxCell id="xsFkYM95h0oVDre0GD-1-39" value="os" style="rounded=1;whiteSpace=wrap;html=1;container=0;fontSize=7;verticalAlign=middle;fontStyle=0;fontFamily=Poppins;fillColor=#f5f5f5;fontColor=#333333;strokeColor=#666666;fontSource=https%3A%2F%2Ffonts.googleapis.com%2Fcss%3Ffamily%3DPoppins;" parent="xsFkYM95h0oVDre0GD-1-23" vertex="1">
          <mxGeometry x="30" y="90" width="30" height="30" as="geometry" />
        </mxCell>
        <mxCell id="xsFkYM95h0oVDre0GD-1-40" value="alt" style="rounded=1;whiteSpace=wrap;html=1;container=0;fontSize=7;verticalAlign=middle;fontStyle=0;fontFamily=Poppins;fillColor=#f5f5f5;fontColor=#333333;strokeColor=#666666;fontSource=https%3A%2F%2Ffonts.googleapis.com%2Fcss%3Ffamily%3DPoppins;" parent="xsFkYM95h0oVDre0GD-1-23" vertex="1">
          <mxGeometry x="60" y="81" width="30" height="30" as="geometry" />
        </mxCell>
        <mxCell id="xsFkYM95h0oVDre0GD-1-41" value="" style="rounded=1;whiteSpace=wrap;html=1;rotation=15;container=0;fontSize=7;verticalAlign=middle;fontStyle=0;fontFamily=Poppins;fillColor=#a6a6a6;fontColor=#333333;strokeColor=#666666;fontSource=https%3A%2F%2Ffonts.googleapis.com%2Fcss%3Ffamily%3DPoppins;" parent="xsFkYM95h0oVDre0GD-1-23" vertex="1">
          <mxGeometry x="94" y="95" width="30" height="30" as="geometry" />
        </mxCell>
        <mxCell id="xsFkYM95h0oVDre0GD-1-42" value="rightclick" style="rounded=1;whiteSpace=wrap;html=1;rotation=15;container=0;fontSize=6;verticalAlign=middle;fontStyle=0;fontFamily=Poppins;fillColor=#f5f5f5;fontColor=#333333;strokeColor=#666666;fontSource=https%3A%2F%2Ffonts.googleapis.com%2Fcss%3Ffamily%3DPoppins;" parent="xsFkYM95h0oVDre0GD-1-23" vertex="1">
          <mxGeometry x="123" y="103" width="30" height="30" as="geometry" />
        </mxCell>
        <mxCell id="xsFkYM95h0oVDre0GD-1-43" value="leftclick" style="rounded=1;whiteSpace=wrap;html=1;rotation=15;container=0;fontSize=6;verticalAlign=middle;fontStyle=0;fontFamily=Poppins;fillColor=#f5f5f5;fontColor=#333333;strokeColor=#666666;fontSource=https%3A%2F%2Ffonts.googleapis.com%2Fcss%3Ffamily%3DPoppins;" parent="xsFkYM95h0oVDre0GD-1-23" vertex="1">
          <mxGeometry x="152" y="111" width="30" height="30" as="geometry" />
        </mxCell>
        <mxCell id="xsFkYM95h0oVDre0GD-1-44" value="&lt;i&gt;&lt;b&gt;Layer 2&lt;span style=&quot;white-space: pre;&quot;&gt;&#x9;&lt;/span&gt;&#39;FUN/SYM - Mouse&#39;&lt;/b&gt;&lt;/i&gt;" style="text;html=1;verticalAlign=middle;align=left;fontFamily=Poppins;fontSource=https%3A%2F%2Ffonts.googleapis.com%2Fcss%3Ffamily%3DPoppins;" parent="xsFkYM95h0oVDre0GD-1-1" vertex="1">
          <mxGeometry width="200" height="40" as="geometry" />
        </mxCell>
        <mxCell id="P8fs_v2lmVW-Hmvv1wTS-92" value="example" style="edgeStyle=orthogonalEdgeStyle;rounded=0;orthogonalLoop=1;jettySize=auto;html=1;exitX=1;exitY=0.5;exitDx=0;exitDy=0;fontSize=9;fontFamily=Poppins;fontSource=https%3A%2F%2Ffonts.googleapis.com%2Fcss%3Ffamily%3DPoppins;" parent="1" source="P8fs_v2lmVW-Hmvv1wTS-94" target="P8fs_v2lmVW-Hmvv1wTS-91" edge="1">
          <mxGeometry y="5" relative="1" as="geometry">
            <mxPoint x="222.30999999999995" y="125" as="sourcePoint" />
            <mxPoint as="offset" />
          </mxGeometry>
        </mxCell>
        <mxCell id="P8fs_v2lmVW-Hmvv1wTS-47" value="Behavior" style="text;strokeColor=none;fillColor=none;html=1;verticalAlign=middle;align=center;fontFamily=Poppins;fontSource=https%3A%2F%2Ffonts.googleapis.com%2Fcss%3Ffamily%3DPoppins;" parent="1" vertex="1">
          <mxGeometry x="120" y="60" width="150" height="40" as="geometry" />
        </mxCell>
        <mxCell id="P8fs_v2lmVW-Hmvv1wTS-91" value="esc&lt;br style=&quot;font-size: 7px;&quot;&gt;layer2" style="rounded=1;whiteSpace=wrap;html=1;container=0;fontSize=7;verticalAlign=middle;fontStyle=0;fontFamily=Poppins;fillColor=#f5f5f5;fontColor=#333333;strokeColor=#666666;fontSource=https%3A%2F%2Ffonts.googleapis.com%2Fcss%3Ffamily%3DPoppins;" parent="1" vertex="1">
          <mxGeometry x="302.31" y="110" width="30" height="30" as="geometry" />
        </mxCell>
        <mxCell id="P8fs_v2lmVW-Hmvv1wTS-93" value="&lt;p style=&quot;line-height: 70%; font-size: 10px;&quot;&gt;esc when tapped,&lt;font style=&quot;font-size: 10px;&quot;&gt;&lt;br style=&quot;font-size: 10px;&quot;&gt;&lt;br style=&quot;font-size: 10px;&quot;&gt;&lt;/font&gt;layer2 when held&lt;/p&gt;" style="text;html=1;strokeColor=none;fillColor=none;align=center;verticalAlign=middle;whiteSpace=wrap;rounded=0;fontSize=10;fontFamily=Poppins;fontSource=https%3A%2F%2Ffonts.googleapis.com%2Fcss%3Ffamily%3DPoppins;" parent="1" vertex="1">
          <mxGeometry x="332.31" y="115" width="110" height="20" as="geometry" />
        </mxCell>
        <mxCell id="P8fs_v2lmVW-Hmvv1wTS-94" value="tap&lt;br style=&quot;font-size: 7px;&quot;&gt;hold" style="rounded=1;whiteSpace=wrap;html=1;container=0;fontSize=7;verticalAlign=middle;fontStyle=0;fontFamily=Poppins;fillColor=#f5f5f5;fontColor=#333333;strokeColor=#666666;fontSource=https%3A%2F%2Ffonts.googleapis.com%2Fcss%3Ffamily%3DPoppins;" parent="1" vertex="1">
          <mxGeometry x="190" y="110" width="30" height="30" as="geometry" />
        </mxCell>
      </root>
    </mxGraphModel>
  </diagram>
</mxfile>
